<svg version="1.1" viewBox="0.0 0.0 1920.0 1080.0" fill="none" stroke="none" stroke-linecap="square" stroke-miterlimit="10" xmlns:xlink="http://www.w3.org/1999/xlink" xmlns="http://www.w3.org/2000/svg"><clipPath id="p1.0"><path d="m0 0l1920.0 0l0 1080.0l-1920.0 0l0 -1080.0z" clip-rule="nonzero"/></clipPath><g clip-path="url(#p1.0)"><path fill="#bfbfbf" d="m0 0l1920.0 0l0 1080.0l-1920.0 0z" fill-rule="evenodd"/><path fill="#000000" fill-opacity="0.0" d="m467.33334 540.5715l857.33325 0l0 61.333313l-857.33325 0z" fill-rule="evenodd"/><path fill="#000000" d="m566.85547 553.25226q0 6.65625 -4.59375 11.375q-3.953125 4.09375 -9.28125 5.15625q-0.6875 0.140625 -0.984375 0.5625q-0.296875 0.34375 -0.265625 0.8125q0.09375 0.4375 0.484375 0.6875q0.421875 0.265625 1.0625 0.171875q5.203125 -1.03125 9.453125 -4.9375q4.09375 -3.65625 5.375 -7.984375q1.375 4.296875 5.375 7.984375q4.203125 3.875 9.1875 4.90625q0.734375 0.125 1.25 -0.140625q0.4375 -0.25 0.515625 -0.71875q0.125 -0.484375 -0.171875 -0.859375q-0.34375 -0.4375 -0.984375 -0.5625q-5.625 -1.15625 -9.5 -5.15625q-4.421875 -4.59375 -4.421875 -11.21875q0 -0.6875 -0.4375 -1.109375q-0.34375 -0.34375 -0.8125 -0.34375q-0.515625 0 -0.859375 0.34375q-0.390625 0.375 -0.390625 1.03125zm0 20.0625l0 8.890625l-15.421875 0q-0.59375 0 -0.9375 0.296875q-0.3125 0.34375 -0.34375 0.78125q-0.046875 0.421875 0.203125 0.765625q0.265625 0.34375 0.734375 0.34375l33.734375 0q0.5625 0 0.90625 -0.34375q0.34375 -0.34375 0.34375 -0.765625q0 -0.4375 -0.34375 -0.78125q-0.34375 -0.296875 -0.953125 -0.296875l-15.421875 0l0 -8.71875q0 -0.609375 -0.4375 -0.953125q-0.34375 -0.34375 -0.8125 -0.34375q-0.515625 -0.03125 -0.859375 0.265625q-0.390625 0.296875 -0.390625 0.859375zm42.671875 -20.625l-12.28125 0q-1.375 0 -1.375 1.078125q-0.046875 1.0625 1.28125 1.0625l11.5625 0q1.28125 0 1.890625 0.390625q0.59375 0.4375 0.59375 1.296875l0 7.34375q0 0.9375 -0.421875 1.25q-0.390625 0.34375 -1.46875 0.34375l-9.234375 0q-1.890625 0 -2.96875 1.109375q-1.03125 1.078125 -1.03125 2.84375l0 10.140625q0 1.921875 1.0 3.046875q1.0625 1.203125 3.21875 1.203125q5.15625 0 9.875 -0.78125q5.328125 -0.8125 8.90625 -2.40625q1.0625 -0.546875 0.59375 -1.625q-0.421875 -1.078125 -1.546875 -0.46875q-3.140625 1.40625 -7.609375 2.234375q-4.640625 0.859375 -9.578125 0.859375q-1.28125 0 -1.796875 -0.5625q-0.515625 -0.46875 -0.515625 -1.671875l0 -9.625q0 -1.125 0.375 -1.59375q0.4375 -0.46875 1.515625 -0.46875l9.140625 0q2.03125 0 3.015625 -0.90625q0.984375 -0.859375 0.984375 -2.5l0 -8.328125q0 -1.59375 -1.109375 -2.453125q-1.125 -0.8125 -3.015625 -0.8125zm16.421875 33.34375l0 -33.4375q0 -0.546875 -0.4375 -0.890625q-0.34375 -0.265625 -0.859375 -0.265625q-0.5625 0 -0.90625 0.265625q-0.375 0.34375 -0.375 0.890625l0 33.4375q0 0.609375 0.375 0.984375q0.34375 0.34375 0.90625 0.34375q0.515625 0 0.859375 -0.34375q0.4375 -0.375 0.4375 -0.984375zm20.0625 -22.046875l23.96875 0q0.515625 0 0.859375 -0.34375q0.265625 -0.34375 0.265625 -0.765625q0 -0.4375 -0.34375 -0.78125q-0.34375 -0.296875 -0.953125 -0.296875l-23.40625 0q-1.25 0 -1.765625 -0.515625q-0.46875 -0.4375 -0.46875 -1.5l0 -6.5q0 -0.640625 -0.4375 -1.03125q-0.34375 -0.34375 -0.859375 -0.34375q-0.5625 0 -0.90625 0.34375q-0.375 0.390625 -0.375 1.078125l0 6.921875q0 1.671875 1.234375 2.703125q1.25 1.03125 3.1875 1.03125zm26.765625 5.421875l-33.515625 0q-1.15625 0 -1.15625 1.0625q0.046875 1.078125 1.203125 1.078125l33.765625 0q0.484375 0 0.734375 -0.34375q0.265625 -0.296875 0.265625 -0.734375q-0.046875 -0.46875 -0.34375 -0.765625q-0.390625 -0.296875 -0.953125 -0.296875zm-28.609375 7.390625q0 -0.734375 -0.4375 -1.171875q-0.34375 -0.375 -0.859375 -0.375q-0.5625 0 -0.90625 0.375q-0.375 0.390625 -0.375 1.171875l0 5.75q0 1.671875 0.984375 2.71875q0.984375 1.0625 2.703125 1.0625l24.703125 0q1.125 0 1.125 -1.109375q0 -1.078125 -1.125 -1.078125l-23.75 0q-1.203125 0 -1.640625 -0.390625q-0.421875 -0.421875 -0.421875 -1.59375l0 -5.359375z" fill-rule="nonzero"/><path fill="#000000" d="m711.81836 552.42413l-13.625 0q-1.9375 0 -3.09375 1.125q-1.078125 1.078125 -1.078125 2.796875l0 8.203125q0 2.0625 1.296875 3.21875q1.28125 1.15625 3.484375 1.15625q5.53125 0 9.484375 -0.515625q5.03125 -0.640625 8.765625 -2.140625q0.5625 -0.265625 0.78125 -0.78125q0.171875 -0.421875 0 -0.859375q-0.21875 -0.46875 -0.640625 -0.640625q-0.484375 -0.21875 -1.03125 0.046875q-3.578125 1.453125 -8.0 2.109375q-3.90625 0.59375 -9.234375 0.59375q-1.203125 0 -1.765625 -0.5625q-0.59375 -0.59375 -0.59375 -1.796875l0 -7.484375q0 -1.28125 0.421875 -1.75q0.46875 -0.515625 1.765625 -0.515625l13.015625 0q1.25 0 1.296875 -1.125q0 -1.078125 -1.25 -1.078125zm10.828125 8.390625l0 -8.25q0 -1.171875 -1.296875 -1.171875q-1.234375 0 -1.234375 1.171875l0 16.359375q0 0.5625 0.375 0.90625q0.34375 0.296875 0.859375 0.296875q0.515625 0 0.859375 -0.296875q0.4375 -0.34375 0.4375 -0.90625l0 -5.921875l4.6875 0q1.109375 0 1.109375 -1.125q0 -1.0625 -1.109375 -1.0625l-4.6875 0zm1.28125 14.734375l-28.1875 0q-1.203125 0 -1.203125 1.078125q0 1.109375 1.203125 1.109375l28.359375 0q1.03125 0 1.0 -1.109375q-0.046875 -1.078125 -1.171875 -1.078125zm-6.703125 -4.078125l-14.78125 0q-1.203125 0 -1.203125 1.0625q0 1.125 1.203125 1.125l15.0 0q0.46875 0 0.734375 -0.34375q0.25 -0.34375 0.25 -0.78125q-0.03125 -0.421875 -0.34375 -0.765625q-0.296875 -0.296875 -0.859375 -0.296875zm-7.34375 7.640625q-6.609375 0 -9.921875 1.03125q-3.21875 1.03125 -3.21875 3.140625q0 2.0625 3.21875 3.09375q3.3125 1.078125 9.921875 1.078125q6.484375 0 9.75 -1.078125q3.3125 -1.03125 3.3125 -3.09375q0 -2.109375 -3.3125 -3.140625q-3.265625 -1.03125 -9.75 -1.03125zm0 2.1875q5.203125 0 7.90625 0.515625q2.625 0.484375 2.625 1.46875q0 0.9375 -2.625 1.421875q-2.703125 0.5625 -7.90625 0.5625q-5.328125 0 -8.03125 -0.5625q-2.625 -0.484375 -2.625 -1.421875q0 -0.984375 2.625 -1.46875q2.703125 -0.515625 8.03125 -0.515625zm48.859375 -28.5625l-19.515625 0q-1.203125 0 -1.203125 1.0625q-0.03125 1.125 1.171875 1.125l8.5 0l0 7.0q0 6.703125 -2.875 12.25q-2.75 5.40625 -7.09375 7.640625q-0.5625 0.265625 -0.734375 0.78125q-0.125 0.46875 0.140625 0.9375q0.203125 0.4375 0.640625 0.609375q0.46875 0.21875 0.984375 -0.046875q3.609375 -1.796875 6.484375 -6.0625q2.84375 -4.15625 3.703125 -8.671875q0.734375 4.375 3.65625 8.671875q2.921875 4.21875 6.359375 6.0625q0.640625 0.34375 1.203125 0.171875q0.515625 -0.125 0.765625 -0.59375q0.21875 -0.4375 0.09375 -0.953125q-0.140625 -0.515625 -0.6875 -0.8125q-4.515625 -2.5 -7.265625 -7.828125q-2.84375 -5.5 -2.84375 -12.203125l0 -6.953125l8.515625 0q1.078125 0 1.078125 -1.125q0 -1.0625 -1.078125 -1.0625zm9.15625 33.296875l0 -33.4375q0 -0.546875 -0.4375 -0.890625q-0.34375 -0.265625 -0.859375 -0.265625q-0.5625 0 -0.90625 0.265625q-0.375 0.34375 -0.375 0.890625l0 33.4375q0 0.609375 0.375 0.984375q0.34375 0.34375 0.90625 0.34375q0.515625 0 0.859375 -0.34375q0.4375 -0.375 0.4375 -0.984375z" fill-rule="nonzero"/><path fill="#000000" d="m801.34375 552.17413q-4.6875 0 -7.4375 2.625q-2.453125 2.359375 -2.453125 5.703125q0 3.359375 2.453125 5.71875q2.75 2.671875 7.4375 2.671875q4.59375 0 7.296875 -2.671875q2.453125 -2.359375 2.453125 -5.71875q0 -3.34375 -2.453125 -5.703125q-2.703125 -2.625 -7.296875 -2.625zm0 2.234375q3.4375 0 5.453125 1.9375q1.8125 1.71875 1.8125 4.15625q0 2.5 -1.8125 4.21875q-2.015625 1.96875 -5.453125 1.96875q-3.53125 0 -5.546875 -1.96875q-1.765625 -1.71875 -1.765625 -4.21875q0 -2.484375 1.765625 -4.15625q2.015625 -1.9375 5.546875 -1.9375zm19.25 6.40625l0 -8.25q0 -1.171875 -1.296875 -1.171875q-1.234375 0 -1.234375 1.171875l0 16.359375q0 0.5625 0.375 0.90625q0.34375 0.296875 0.859375 0.296875q0.515625 0 0.859375 -0.296875q0.4375 -0.34375 0.4375 -0.90625l0 -5.921875l4.6875 0q1.109375 0 1.109375 -1.125q0 -1.0625 -1.109375 -1.0625l-4.6875 0zm-1.890625 11.03125l-9.203125 0q-1.15625 0 -1.15625 1.125q0 1.109375 1.15625 1.109375l9.375 0q0.46875 0 0.765625 -0.375q0.265625 -0.3125 0.265625 -0.734375q-0.046875 -0.46875 -0.34375 -0.78125q-0.296875 -0.34375 -0.859375 -0.34375zm3.171875 4.0l-15.46875 0q-1.203125 0 -1.203125 1.078125q0 1.109375 1.203125 1.109375l15.609375 0q1.03125 0 0.984375 -1.109375q-0.046875 -1.078125 -1.125 -1.078125zm-7.765625 3.4375q-3.828125 0 -5.8125 1.15625q-1.75 1.03125 -1.75 2.671875q0 1.59375 1.75 2.625q1.984375 1.15625 5.8125 1.15625q3.734375 0 5.796875 -1.15625q1.84375 -1.03125 1.84375 -2.625q0 -1.640625 -1.84375 -2.671875q-2.0625 -1.15625 -5.796875 -1.15625zm0 2.1875q2.578125 0 3.859375 0.4375q1.203125 0.390625 1.203125 1.203125q0 0.734375 -1.203125 1.109375q-1.28125 0.484375 -3.859375 0.484375q-2.625 0 -3.921875 -0.484375q-1.203125 -0.375 -1.203125 -1.109375q0 -0.78125 1.203125 -1.203125q1.296875 -0.4375 3.921875 -0.4375zm-20.328125 -8.203125l0 10.0625q0 1.546875 1.03125 2.453125q1.078125 0.890625 2.96875 0.890625q1.96875 0 3.640625 -0.296875q1.421875 -0.25 3.40625 -0.859375q0.59375 -0.21875 0.859375 -0.6875q0.25 -0.390625 0.125 -0.859375q-0.09375 -0.4375 -0.46875 -0.609375q-0.4375 -0.203125 -0.953125 0q-1.03125 0.34375 -3.0 0.6875q-2.15625 0.390625 -3.359375 0.390625q-1.078125 0 -1.421875 -0.296875q-0.296875 -0.265625 -0.296875 -1.03125l0 -9.84375q0 -0.640625 -0.421875 -1.03125q-0.34375 -0.34375 -0.859375 -0.34375q-0.515625 0 -0.859375 0.34375q-0.390625 0.390625 -0.390625 1.03125zm51.5625 -20.75q-4.734375 0 -7.4375 4.765625q-2.453125 4.390625 -2.453125 11.0q0 6.53125 2.453125 10.875q2.703125 4.8125 7.4375 4.8125q4.640625 0 7.296875 -4.8125q2.453125 -4.34375 2.453125 -10.875q0 -6.609375 -2.453125 -11.0q-2.65625 -4.765625 -7.296875 -4.765625zm0 2.1875q3.4375 0 5.40625 4.078125q1.8125 3.75 1.8125 9.5q0 5.625 -1.8125 9.40625q-1.96875 4.125 -5.40625 4.125q-3.53125 0 -5.5 -4.125q-1.8125 -3.78125 -1.8125 -9.40625q0 -5.75 1.8125 -9.5q1.96875 -4.078125 5.5 -4.078125zm19.25 13.625l0 -15.734375q0 -0.546875 -0.4375 -0.890625q-0.34375 -0.265625 -0.859375 -0.265625q-0.515625 0 -0.859375 0.265625q-0.375 0.34375 -0.375 0.890625l0 33.53125q0 0.546875 0.375 0.890625q0.34375 0.34375 0.859375 0.34375q0.515625 0 0.859375 -0.34375q0.4375 -0.34375 0.4375 -0.890625l0 -15.6875l4.765625 0q1.03125 0 1.03125 -1.078125q0 -1.03125 -1.03125 -1.03125l-4.765625 0zm44.734375 -15.765625l-23.515625 0q-2.09375 0 -3.265625 1.15625q-1.0625 1.15625 -1.0625 3.140625l0 10.265625q0 1.71875 1.0625 2.75q1.078125 1.078125 3.015625 1.078125l24.40625 0q1.078125 0 1.03125 -1.078125q0 -1.078125 -1.125 -1.078125l-24.09375 0q-0.953125 0 -1.34375 -0.390625q-0.375 -0.34375 -0.375 -1.15625l0 -10.90625q0 -0.828125 0.421875 -1.203125q0.4375 -0.34375 1.375 -0.34375l23.671875 0q0.484375 0 0.734375 -0.390625q0.265625 -0.296875 0.265625 -0.734375q-0.046875 -0.46875 -0.34375 -0.765625q-0.3125 -0.34375 -0.859375 -0.34375zm-14.578125 20.75l0 8.890625l-15.421875 0q-0.59375 0 -0.9375 0.296875q-0.3125 0.34375 -0.34375 0.78125q-0.046875 0.421875 0.203125 0.765625q0.265625 0.34375 0.734375 0.34375l33.734375 0q0.5625 0 0.90625 -0.34375q0.34375 -0.34375 0.34375 -0.765625q0 -0.4375 -0.34375 -0.78125q-0.34375 -0.296875 -0.953125 -0.296875l-15.421875 0l0 -8.71875q0 -0.609375 -0.4375 -0.953125q-0.34375 -0.34375 -0.8125 -0.34375q-0.515625 -0.03125 -0.859375 0.265625q-0.390625 0.296875 -0.390625 0.859375z" fill-rule="nonzero"/><path fill="#000000" d="m947.49414 552.42413l-13.140625 0q-1.203125 0 -1.15625 1.078125q0 1.125 1.203125 1.125l12.84375 0q0.90625 0 1.421875 0.421875q0.546875 0.4375 0.546875 1.328125l0 1.890625q0 4.859375 -3.984375 7.5625q-3.953125 2.625 -11.4375 2.921875q-0.640625 0 -1.03125 0.390625q-0.296875 0.296875 -0.296875 0.78125q0 0.421875 0.390625 0.71875q0.375 0.3125 1.03125 0.3125q8.453125 -0.390625 13.140625 -3.78125q4.640625 -3.359375 4.640625 -8.859375l0 -2.28125q0 -1.625 -1.203125 -2.609375q-1.15625 -1.0 -2.96875 -1.0zm15.046875 9.375l0 -9.234375q0 -1.171875 -1.296875 -1.171875q-1.234375 0 -1.234375 1.171875l0 17.21875q0 0.609375 0.375 0.953125q0.34375 0.34375 0.859375 0.34375q0.515625 0 0.859375 -0.34375q0.4375 -0.34375 0.4375 -0.953125l0 -5.796875l4.6875 0q1.109375 0 1.109375 -1.109375q0 -1.078125 -1.109375 -1.078125l-4.6875 0zm-2.53125 15.859375l0 5.109375q0 0.734375 -0.484375 1.078125q-0.421875 0.296875 -1.375 0.296875l-17.65625 0q-1.078125 0 -1.5 -0.34375q-0.4375 -0.34375 -0.4375 -1.203125l0 -4.859375q0 -0.8125 0.34375 -1.15625q0.4375 -0.390625 1.421875 -0.390625l17.75 0q1.03125 0 1.453125 0.296875q0.484375 0.34375 0.484375 1.171875zm-1.34375 -3.65625l-19.15625 0q-1.59375 0 -2.53125 0.90625q-0.953125 0.890625 -0.953125 2.265625l0 5.640625q0 1.71875 0.90625 2.578125q0.9375 0.9375 3.140625 0.9375l18.765625 0q1.71875 0 2.671875 -0.8125q1.03125 -0.859375 1.03125 -2.5l0 -6.015625q0 -1.375 -1.03125 -2.1875q-1.03125 -0.8125 -2.84375 -0.8125zm39.96869 -21.578125l-19.515564 0q-1.203125 0 -1.203125 1.078125q-0.03125 1.125 1.171875 1.125l8.499939 0l0 1.40625q0 4.515625 -2.96875 7.734375q-2.4375 2.671875 -7.046814 4.5625q-0.546875 0.21875 -0.71875 0.6875q-0.140625 0.421875 0.078125 0.859375q0.265625 0.46875 0.6875 0.640625q0.46875 0.21875 1.03125 0.046875q3.874939 -1.5 6.578064 -4.0q2.625 -2.484375 3.609375 -5.375q0.734375 2.546875 3.6875 5.125q2.75 2.359375 6.28125 3.859375q0.59375 0.265625 1.15625 0.09375q0.515625 -0.171875 0.78125 -0.65625q0.203125 -0.46875 0.078125 -0.9375q-0.171875 -0.46875 -0.734375 -0.6875q-4.296875 -1.71875 -6.78125 -4.296875q-3.1875 -3.265625 -3.1875 -7.734375l0 -1.328125l8.515625 0q1.078125 0 1.078125 -1.125q0 -1.078125 -1.078125 -1.078125zm9.15625 19.859375l0 -19.640625q0 -0.59375 -0.4375 -0.9375q-0.34375 -0.3125 -0.859375 -0.3125q-0.5625 0 -0.90625 0.34375q-0.375 0.34375 -0.375 0.953125l0 7.46875l-7.359375 0q-0.59375 0 -0.890625 0.3125q-0.3125 0.34375 -0.3125 0.765625q0.046875 0.4375 0.390625 0.78125q0.390625 0.34375 1.03125 0.34375l7.140625 0l0 9.921875q0 0.640625 0.375 1.03125q0.34375 0.34375 0.90625 0.34375q0.515625 0 0.859375 -0.34375q0.4375 -0.390625 0.4375 -1.03125zm-13.84375 2.0625q-7.046875 0 -10.78125 1.9375q-3.359375 1.71875 -3.359375 4.671875q0 2.84375 3.359375 4.5625q3.734375 1.9375 10.78125 1.9375q7.046875 0 10.75 -1.9375q3.390625 -1.71875 3.390625 -4.5625q0 -2.953125 -3.390625 -4.671875q-3.703125 -1.9375 -10.75 -1.9375zm0 2.234375q5.84375 0 8.859375 1.203125q2.78125 1.15625 2.78125 3.171875q0 1.9375 -2.78125 3.0625q-3.015625 1.25 -8.859375 1.25q-5.890625 0 -8.890625 -1.25q-2.75 -1.125 -2.75 -3.0625q0 -2.015625 2.75 -3.171875q3.0 -1.203125 8.890625 -1.203125zm44.00006 -24.578125q-7.5625 0 -11.421875 2.015625q-3.578186 1.84375 -3.578186 5.109375q0 3.234375 3.578186 5.078125q3.859375 2.015625 11.421875 2.015625q7.515625 0 11.4375 -2.015625q3.5625 -1.84375 3.5625 -5.078125q0 -3.265625 -3.5625 -5.109375q-3.921875 -2.015625 -11.4375 -2.015625zm0 2.1875q6.359375 0 9.546875 1.328125q2.953125 1.25 2.953125 3.609375q0 2.28125 -2.953125 3.53125q-3.1875 1.375 -9.546875 1.375q-6.40625 0 -9.578125 -1.375q-2.921875 -1.25 -2.921875 -3.53125q0 -2.359375 2.921875 -3.609375q3.171875 -1.328125 9.578125 -1.328125zm16.671875 16.84375l-33.34381 0q-0.59375 0 -0.984375 0.34375q-0.296875 0.296875 -0.296875 0.78125q-0.046875 0.421875 0.203125 0.71875q0.3125 0.390625 0.859375 0.390625l33.65631 0q0.546875 0 0.890625 -0.390625q0.3125 -0.296875 0.3125 -0.71875q0 -0.484375 -0.34375 -0.78125q-0.34375 -0.34375 -0.953125 -0.34375zm-28.609375 5.765625q0 -0.734375 -0.4375 -1.171875q-0.34375 -0.375 -0.859375 -0.375q-0.5625 0 -0.90631104 0.375q-0.375 0.390625 -0.375 1.171875l0 5.75q0 1.671875 0.98443604 2.71875q0.984375 1.0625 2.703125 1.0625l24.703125 0q1.125 0 1.125 -1.109375q0 -1.078125 -1.125 -1.078125l-23.75 0q-1.203125 0 -1.640625 -0.390625q-0.421875 -0.421875 -0.421875 -1.59375l0 -5.359375z" fill-rule="nonzero"/><path fill="#000000" d="m1089.1914 552.73663l-12.890625 0q-1.203125 0 -1.15625 1.0625q0 1.125 1.203125 1.125l12.890625 0q0.9375 0 1.40625 0.421875q0.515625 0.4375 0.515625 1.34375l0 2.09375q0 4.984375 -4.03125 8.296875q-4.21875 3.4375 -11.46875 3.953125q-0.65625 0 -1.03125 0.34375q-0.3125 0.34375 -0.265625 0.78125q0.046875 0.46875 0.390625 0.765625q0.390625 0.296875 1.03125 0.296875q7.984375 -0.515625 12.96875 -4.640625q4.859375 -3.984375 4.859375 -9.75l0 -2.3125q0 -1.8125 -1.203125 -2.796875q-1.203125 -0.984375 -3.21875 -0.984375zm16.546875 23.546875l0 -23.546875q0 -0.65625 -0.4375 -1.0q-0.34375 -0.296875 -0.859375 -0.296875q-0.5625 0 -0.90625 0.296875q-0.375 0.34375 -0.375 1.0l0 9.796875l-7.953125 0q-0.609375 0 -0.953125 0.296875q-0.34375 0.34375 -0.296875 0.765625q0 0.4375 0.390625 0.78125q0.390625 0.34375 1.078125 0.34375l7.734375 0l0 11.5625q0 0.640625 0.375 1.03125q0.34375 0.34375 0.90625 0.34375q0.515625 0 0.859375 -0.34375q0.4375 -0.390625 0.4375 -1.03125zm-25.0625 0.515625q0 -0.6875 -0.421875 -1.078125q-0.34375 -0.34375 -0.859375 -0.34375q-0.5625 0 -0.90625 0.34375q-0.390625 0.390625 -0.390625 1.078125l0 5.703125q0 1.890625 1.203125 2.890625q1.125 0.9375 3.0625 0.9375l23.578125 0q1.078125 0 1.078125 -1.109375q0 -1.078125 -1.078125 -1.078125l-23.15625 0q-1.25 0 -1.671875 -0.390625q-0.4375 -0.421875 -0.4375 -1.59375l0 -5.359375zm39.1875 -22.859375l0 23.796875q0 2.28125 1.171875 3.5625q1.234375 1.421875 3.609375 1.421875q3.734375 0 7.859375 -0.5625q4.546875 -0.546875 7.5625 -1.546875q0.59375 -0.203125 0.90625 -0.6875q0.203125 -0.421875 0.078125 -0.890625q-0.125 -0.4375 -0.5625 -0.65625q-0.421875 -0.203125 -1.03125 0.046875q-2.609375 0.90625 -7.078125 1.5q-4.09375 0.609375 -7.3125 0.609375q-1.375 0 -2.015625 -0.609375q-0.640625 -0.546875 -0.640625 -1.71875l0 -24.3125q0 -0.640625 -0.4375 -0.984375q-0.34375 -0.3125 -0.859375 -0.3125q-0.515625 0 -0.859375 0.3125q-0.390625 0.375 -0.390625 1.03125zm29.875 32.046875l0 -33.296875q0 -0.609375 -0.4375 -0.953125q-0.34375 -0.34375 -0.859375 -0.34375q-0.5625 0 -0.90625 0.34375q-0.375 0.34375 -0.375 1.0l0 11.984375l-11.390625 0q-0.609375 0 -0.953125 0.34375q-0.296875 0.296875 -0.296875 0.765625q0.046875 0.4375 0.34375 0.734375q0.390625 0.390625 1.03125 0.390625l11.265625 0l0 19.03125q0 0.65625 0.375 1.03125q0.34375 0.390625 0.90625 0.390625q0.515625 0 0.859375 -0.390625q0.4375 -0.375 0.4375 -1.03125zm27.453125 -33.25l-12.890625 0q-1.203125 0 -1.15625 1.0625q0 1.125 1.203125 1.125l12.890625 0q0.9375 0 1.40625 0.421875q0.515625 0.4375 0.515625 1.34375l0 2.09375q0 4.984375 -4.03125 8.296875q-4.21875 3.4375 -11.46875 3.953125q-0.65625 0 -1.03125 0.34375q-0.3125 0.34375 -0.265625 0.78125q0.046875 0.46875 0.390625 0.765625q0.390625 0.296875 1.03125 0.296875q7.984375 -0.515625 12.96875 -4.640625q4.859375 -3.984375 4.859375 -9.75l0 -2.3125q0 -1.8125 -1.203125 -2.796875q-1.203125 -0.984375 -3.21875 -0.984375zm15.296875 11.640625l0 -11.8125q0 -1.171875 -1.296875 -1.171875q-1.234375 0 -1.234375 1.171875l0 23.796875q0 0.609375 0.375 0.953125q0.34375 0.34375 0.859375 0.34375q0.515625 0 0.859375 -0.34375q0.4375 -0.34375 0.4375 -0.953125l0 -9.796875l4.6875 0q1.109375 0 1.109375 -1.109375q0 -1.078125 -1.109375 -1.078125l-4.6875 0zm-23.984375 12.375q0 -0.734375 -0.421875 -1.125q-0.34375 -0.375 -0.859375 -0.375q-0.515625 0 -0.859375 0.375q-0.390625 0.390625 -0.390625 1.125l0 5.671875q0 1.796875 1.078125 2.84375q1.15625 1.0625 3.171875 1.0625l22.265625 0q1.109375 0 1.109375 -1.109375q0 -1.078125 -1.109375 -1.078125l-21.921875 0q-1.203125 0 -1.625 -0.390625q-0.4375 -0.421875 -0.4375 -1.59375l0 -5.40625zm57.15625 -24.015625l-13.453125 0q-2.015625 0 -3.21875 1.15625q-1.125 1.109375 -1.125 3.0l0 22.21875q0 2.234375 1.25 3.4375q1.203125 1.15625 3.5625 1.15625q5.25 0 9.765625 -0.8125q5.015625 -0.90625 8.453125 -2.703125q0.5625 -0.34375 0.734375 -0.859375q0.21875 -0.515625 0 -0.953125q-0.171875 -0.46875 -0.59375 -0.59375q-0.484375 -0.171875 -1.03125 0.171875q-3.140625 1.625 -7.734375 2.625q-4.5625 0.9375 -9.5 0.9375q-1.203125 0 -1.765625 -0.5625q-0.59375 -0.59375 -0.59375 -1.84375l0 -22.078125q0 -1.171875 0.375 -1.640625q0.4375 -0.46875 1.515625 -0.46875l13.3125 0q1.25 0 1.296875 -1.125q0 -1.0625 -1.25 -1.0625zm10.828125 15.59375l0 -15.734375q0 -0.546875 -0.4375 -0.890625q-0.34375 -0.265625 -0.859375 -0.265625q-0.515625 0 -0.859375 0.265625q-0.375 0.34375 -0.375 0.890625l0 33.53125q0 0.546875 0.375 0.890625q0.34375 0.34375 0.859375 0.34375q0.515625 0 0.859375 -0.34375q0.4375 -0.34375 0.4375 -0.890625l0 -15.6875l4.765625 0q1.03125 0 1.03125 -1.078125q0 -1.03125 -1.03125 -1.03125l-4.765625 0z" fill-rule="nonzero"/><path fill="#000000" fill-opacity="0.0" d="m630.6667 348.0l530.6667 0l0 158.66666l-530.6667 0z" fill-rule="evenodd"/><path fill="#000000" d="m649.0417 342.87152l0 7.015625q0 1.5 -0.34375 2.390625q-0.328125 0.875 -1.0 1.359375q-0.65625 0.46875 -1.65625 0.640625q-0.984375 0.15625 -2.375 0.15625q-1.375 0 -2.375 -0.15625q-1.0 -0.171875 -1.640625 -0.640625q-0.625 -0.484375 -0.9375 -1.359375q-0.296875 -0.890625 -0.296875 -2.390625q0 -1.65625 0.15625 -3.09375q0.171875 -1.4375 0.5625 -2.703125q0.390625 -1.28125 1.015625 -2.546875q0.640625 -1.28125 1.578125 -2.609375l7.578125 -11.390625q0.28125 -0.453125 0.609375 -0.71875q0.34375 -0.28125 0.859375 -0.46875q0.53125 -0.203125 1.21875 -0.3125q0.703125 -0.109375 1.6875 -0.109375q1.0 0 1.625 0.09375q0.640625 0.078125 0.9375 0.265625q0.3125 0.1875 0.3125 0.53125q0 0.328125 -0.21875 0.765625l-7.296875 15.28125z" fill-rule="nonzero"/><path fill="#000000" d="m727.67773 319.84027l-50.25 0q-3.09375 0 -3.09375 2.765625q-0.125 2.890625 2.984375 2.890625l21.90625 0l0 18.03125q0 17.265625 -7.40625 31.546875q-7.09375 13.9375 -18.265625 19.703125q-1.4375 0.65625 -1.875 1.984375q-0.34375 1.21875 0.328125 2.4375q0.546875 1.109375 1.65625 1.546875q1.21875 0.546875 2.546875 -0.109375q9.296875 -4.65625 16.703125 -15.609375q7.3125 -10.734375 9.53125 -22.359375q1.875 11.296875 9.40625 22.359375q7.515625 10.84375 16.375 15.609375q1.65625 0.890625 3.09375 0.4375q1.328125 -0.328125 2.0 -1.546875q0.546875 -1.109375 0.21875 -2.4375q-0.328125 -1.328125 -1.765625 -2.09375q-11.625 -6.421875 -18.703125 -20.140625q-7.3125 -14.171875 -7.3125 -31.4375l0 -17.921875l21.921875 0q2.765625 0 2.765625 -2.890625q0 -2.765625 -2.765625 -2.765625zm20.359375 40.171875l0 -40.5q0 -1.4375 -1.109375 -2.328125q-0.890625 -0.65625 -2.21875 -0.65625q-1.328125 0 -2.203125 0.65625q-1.0 0.890625 -1.0 2.328125l0 86.328125q0 1.4375 1.0 2.328125q0.875 0.875 2.203125 0.875q1.328125 0 2.21875 -0.875q1.109375 -0.890625 1.109375 -2.328125l0 -40.390625l12.28125 0q2.65625 0 2.65625 -2.78125q0 -2.65625 -2.65625 -2.65625l-12.28125 0zm79.6875 -30.53125l0 24.890625q0 2.546875 -1.21875 3.546875q-1.109375 1.0 -3.765625 1.0l-23.6875 0q-2.765625 0 -3.765625 -1.0q-1.109375 -0.890625 -1.109375 -3.328125l0 -24.5625q0 -2.875 1.0 -4.09375q1.109375 -1.21875 3.765625 -1.21875l23.578125 0q2.875 0 4.09375 1.21875q1.109375 1.109375 1.109375 3.546875zm-3.4375 -10.40625l-26.78125 0q-4.53125 0 -7.3125 2.875q-2.53125 2.65625 -2.53125 6.640625l0 27.109375q0 3.984375 2.53125 6.421875q2.546875 2.328125 6.875 2.328125l26.890625 0q4.53125 0 7.296875 -2.328125q2.875 -2.4375 2.875 -6.421875l0 -27.78125q0 -4.09375 -2.65625 -6.53125q-2.65625 -2.3125 -7.1875 -2.3125zm37.078125 24.125l0 -23.796875q0 -2.984375 -3.328125 -2.984375q-3.203125 0 -3.203125 2.984375l0 44.375q0 1.546875 1.0 2.4375q0.875 0.890625 2.203125 0.890625q1.328125 0 2.21875 -0.890625q1.109375 -0.890625 1.109375 -2.4375l0 -14.9375l12.0625 0q2.875 0 2.875 -2.875q0 -2.765625 -2.875 -2.765625l-12.0625 0zm-10.953125 33.09375l-57.109375 0q-3.109375 0 -2.984375 2.875q0 2.875 2.984375 2.875l57.109375 0q2.3125 0 3.421875 1.0q1.0 0.875 1.0 2.984375l0 19.703125q0 1.546875 1.0 2.546875q0.875 0.765625 2.203125 0.765625q1.328125 0 2.21875 -0.765625q1.109375 -1.0 1.109375 -2.546875l0 -19.703125q0 -4.65625 -2.765625 -7.1875q-2.875 -2.546875 -8.1875 -2.546875zm50.578125 -53.34375l0 61.3125q0 5.859375 2.984375 9.1875q3.203125 3.640625 9.296875 3.640625q9.625 0 20.25 -1.4375q11.734375 -1.4375 19.484375 -3.984375q1.546875 -0.546875 2.3125 -1.765625q0.5625 -1.109375 0.21875 -2.328125q-0.328125 -1.109375 -1.4375 -1.65625q-1.09375 -0.5625 -2.65625 0.109375q-6.75 2.328125 -18.25 3.875q-10.515625 1.546875 -18.8125 1.546875q-3.546875 0 -5.203125 -1.546875q-1.671875 -1.4375 -1.671875 -4.421875l0 -62.640625q0 -1.671875 -1.09375 -2.546875q-0.890625 -0.78125 -2.21875 -0.78125q-1.328125 0 -2.21875 0.78125q-0.984375 0.984375 -0.984375 2.65625zm76.90625 82.5625l0 -85.78125q0 -1.546875 -1.109375 -2.4375q-0.875 -0.875 -2.203125 -0.875q-1.4375 0 -2.328125 0.875q-1.0 0.890625 -1.0 2.546875l0 30.875l-29.328125 0q-1.546875 0 -2.4375 0.890625q-0.765625 0.78125 -0.765625 2.0q0.109375 1.09375 0.890625 1.875q0.984375 1.0 2.65625 1.0l28.984375 0l0 49.03125q0 1.65625 1.0 2.65625q0.890625 0.984375 2.328125 0.984375q1.328125 0 2.203125 -0.984375q1.109375 -1.0 1.109375 -2.65625zm76.484375 -75.484375l0 59.546875q0 2.546875 -1.21875 3.53125q-1.109375 0.890625 -3.875 0.890625l-23.578125 0q-2.765625 0 -3.765625 -1.0q-1.109375 -1.0 -1.109375 -3.53125l0 -58.78125q0 -2.53125 1.0 -3.859375q1.109375 -1.328125 3.65625 -1.328125l23.578125 0q2.875 0 4.09375 1.09375q1.21875 1.109375 1.21875 3.4375zm-4.875 -10.1875l-24.90625 0q-4.859375 0 -7.625 3.0q-2.65625 2.875 -2.65625 7.40625l0 59.765625q0 4.765625 2.421875 7.078125q2.546875 2.546875 8.203125 2.546875l25.34375 0q5.1875 0 7.84375 -2.4375q2.65625 -2.421875 2.65625 -7.296875l0 -60.421875q0 -4.546875 -3.203125 -7.203125q-2.984375 -2.4375 -8.078125 -2.4375zm41.71875 85.328125l0 -85.328125q0 -1.65625 -1.109375 -2.546875q-0.875 -0.765625 -2.203125 -0.765625q-1.4375 0 -2.328125 0.765625q-1.0 0.890625 -1.0 2.546875l0 36.1875l-18.921875 0q-1.546875 0 -2.328125 0.78125q-0.765625 0.890625 -0.765625 2.0q0.109375 1.09375 0.984375 1.984375q1.0 0.890625 2.65625 0.890625l18.375 0l0 43.484375q0 1.890625 1.0 3.0q0.890625 0.984375 2.328125 0.984375q1.328125 0 2.203125 -0.984375q1.109375 -1.21875 1.109375 -3.0z" fill-rule="nonzero"/><path fill="#000000" d="m1132.7871 330.46527q0 1.71875 -0.171875 3.140625q-0.15625 1.40625 -0.546875 2.703125q-0.390625 1.296875 -1.03125 2.546875q-0.625 1.25 -1.578125 2.578125l-7.578125 11.390625q-0.265625 0.390625 -0.640625 0.71875q-0.359375 0.328125 -0.890625 0.53125q-0.515625 0.1875 -1.203125 0.28125q-0.6875 0.078125 -1.75 0.078125q-0.9375 0 -1.578125 -0.078125q-0.625 -0.09375 -0.90625 -0.28125q-0.28125 -0.203125 -0.3125 -0.53125q-0.015625 -0.328125 0.203125 -0.828125l7.359375 -15.21875l0 -7.03125q0 -1.4375 0.296875 -2.3125q0.3125 -0.890625 0.96875 -1.390625q0.671875 -0.5 1.65625 -0.65625q1.0 -0.171875 2.4375 -0.171875q1.390625 0 2.375 0.171875q1.0 0.15625 1.640625 0.65625q0.640625 0.5 0.9375 1.390625q0.3125 0.875 0.3125 2.3125z" fill-rule="nonzero"/><path fill="#000000" fill-opacity="0.0" d="m936.6667 732.0l775.99994 0l0 184.0l-775.99994 0z" fill-rule="evenodd"/><path fill="#000000" d="m954.8542 765.1244l-12.09375 0q-1.03125 0 -1.03125 0.90625q-0.03125 0.953125 0.984375 0.953125l4.96875 0l0 6.40625q0 5.796875 -2.234375 10.53125q-1.703125 3.71875 -4.375 6.125q-0.46875 0.40625 -0.5 0.84375q-0.046875 0.4375 0.25 0.734375q0.25 0.28125 0.65625 0.328125q0.4375 0 0.84375 -0.296875q2.25 -1.9375 4.0 -5.0625q1.828125 -3.25 2.453125 -6.609375q0.546875 3.28125 2.359375 6.609375q1.6875 3.0625 3.796875 5.0625q0.328125 0.296875 0.796875 0.25q0.40625 -0.03125 0.765625 -0.359375q0.328125 -0.296875 0.359375 -0.6875q0.046875 -0.484375 -0.359375 -0.8125q-2.765625 -2.46875 -4.484375 -6.15625q-2.1875 -4.734375 -2.1875 -10.53125l0 -6.375l5.03125 0q0.84375 0 0.875 -0.953125q0 -0.90625 -0.875 -0.90625zm4.125 -0.078125l0 11.59375l-4.953125 0q-0.515625 0 -0.8125 0.28125q-0.28125 0.265625 -0.28125 0.65625q0 0.375 0.28125 0.625q0.296875 0.328125 0.84375 0.328125l4.921875 0l0 14.84375q0 0.5 0.328125 0.828125q0.28125 0.296875 0.765625 0.296875q0.4375 0 0.71875 -0.296875q0.375 -0.328125 0.375 -0.828125l0 -28.40625q0 -0.46875 -0.375 -0.71875q-0.28125 -0.265625 -0.71875 -0.21875q-0.484375 0 -0.765625 0.25q-0.328125 0.25 -0.328125 0.765625zm9.078125 28.328125l0 -28.40625q0 -0.46875 -0.375 -0.71875q-0.28125 -0.265625 -0.6875 -0.265625q-0.4375 0 -0.734375 0.265625q-0.328125 0.28125 -0.328125 0.765625l0 28.359375q0 0.5 0.328125 0.828125q0.296875 0.296875 0.734375 0.296875q0.40625 0 0.6875 -0.296875q0.375 -0.328125 0.375 -0.828125zm28.578125 -28.515625l-16.546875 0q-1.03125 0 -1.03125 0.921875q-0.03125 0.9375 0.984375 0.9375l7.21875 0l0 1.203125q0 3.828125 -2.515625 6.5625q-2.078125 2.265625 -5.96875 3.859375q-0.484375 0.1875 -0.625 0.59375q-0.109375 0.359375 0.078125 0.71875q0.21875 0.40625 0.578125 0.546875q0.40625 0.1875 0.875 0.046875q3.28125 -1.28125 5.578125 -3.390625q2.21875 -2.125 3.0625 -4.5625q0.625 2.15625 3.140625 4.34375q2.328125 2.0 5.3125 3.28125q0.515625 0.21875 0.984375 0.0625q0.4375 -0.140625 0.65625 -0.546875q0.1875 -0.390625 0.078125 -0.796875q-0.15625 -0.40625 -0.625 -0.578125q-3.640625 -1.46875 -5.75 -3.65625q-2.703125 -2.765625 -2.703125 -6.546875l0 -1.140625l7.21875 0q0.90625 0 0.90625 -0.9375q0 -0.921875 -0.90625 -0.921875zm6.703125 7.953125l0 -7.84375q0 -0.984375 -1.09375 -0.984375q-1.0625 0 -1.0625 0.984375l0 14.625q0 0.5 0.328125 0.796875q0.296875 0.296875 0.734375 0.296875q0.4375 0 0.734375 -0.296875q0.359375 -0.296875 0.359375 -0.796875l0 -4.921875l3.96875 0q0.953125 0 0.953125 -0.953125q0 -0.90625 -0.953125 -0.90625l-3.96875 0zm-3.609375 10.890625l-18.8125 0q-1.015625 0 -0.984375 0.953125q0 0.953125 0.984375 0.953125l18.8125 0q0.765625 0 1.125 0.328125q0.328125 0.28125 0.328125 0.984375l0 6.484375q0 0.515625 0.328125 0.84375q0.296875 0.25 0.734375 0.25q0.4375 0 0.734375 -0.25q0.359375 -0.328125 0.359375 -0.84375l0 -6.484375q0 -1.53125 -0.90625 -2.375q-0.953125 -0.84375 -2.703125 -0.84375zm27.812439 -18.578125l-10.781189 0q-1.03125 0 -0.984375 0.90625q0 0.953125 1.015625 0.953125l10.828064 0q0.84375 0 1.3125 0.390625q0.4375 0.40625 0.4375 1.171875l0 4.265625q0 7.6875 -3.640625 11.921875q-3.359314 3.890625 -9.624939 4.546875q-1.03125 0.078125 -0.953125 0.984375q0.078125 0.953125 1.09375 0.875q6.703125 -0.4375 10.796814 -4.984375q4.40625 -4.890625 4.40625 -13.265625l0 -4.3125q0 -1.59375 -1.03125 -2.515625q-1.046875 -0.9375 -2.875 -0.9375zm14.1875 28.25l0 -28.359375q0 -0.484375 -0.375 -0.765625q-0.28125 -0.21875 -0.71875 -0.21875q-0.484375 0 -0.765625 0.21875q-0.328125 0.28125 -0.328125 0.765625l0 28.359375q0 0.5 0.328125 0.828125q0.28125 0.296875 0.765625 0.296875q0.4375 0 0.71875 -0.296875q0.375 -0.328125 0.375 -0.828125zm23.296875 -28.25l-10.9375 0q-1.03125 0 -0.984375 0.90625q0 0.953125 1.015625 0.953125l10.9375 0q0.796875 0 1.203125 0.359375q0.4375 0.359375 0.4375 1.125l0 1.796875q0 4.21875 -3.421875 7.03125q-3.578125 2.90625 -9.734375 3.34375q-0.546875 0 -0.875 0.296875q-0.265625 0.296875 -0.21875 0.65625q0.03125 0.40625 0.328125 0.65625q0.328125 0.25 0.875 0.25q6.78125 -0.4375 11.0 -3.9375q4.125 -3.390625 4.125 -8.265625l0 -1.96875q0 -1.53125 -1.03125 -2.375q-1.015625 -0.828125 -2.71875 -0.828125zm12.96875 9.875l0 -10.03125q0 -0.984375 -1.09375 -0.984375q-1.0625 0 -1.0625 0.984375l0 20.203125q0 0.5 0.328125 0.796875q0.296875 0.296875 0.734375 0.296875q0.4375 0 0.734375 -0.296875q0.359375 -0.296875 0.359375 -0.796875l0 -8.3125l3.96875 0q0.953125 0 0.953125 -0.953125q0 -0.90625 -0.953125 -0.90625l-3.96875 0zm-20.34375 10.5q0 -0.625 -0.359375 -0.953125q-0.296875 -0.328125 -0.734375 -0.328125q-0.4375 0 -0.71875 0.328125q-0.328125 0.328125 -0.328125 0.953125l0 4.8125q0 1.53125 0.90625 2.40625q0.984375 0.90625 2.703125 0.90625l18.875 0q0.953125 0 0.953125 -0.953125q0 -0.90625 -0.953125 -0.90625l-18.59375 0q-1.015625 0 -1.375 -0.328125q-0.375 -0.359375 -0.375 -1.34375l0 -4.59375z" fill-rule="nonzero"/><path fill="#000000" d="m1089.3541 777.015l0 -3.734375l3.734375 0l0 3.734375l-3.734375 0zm0 15.625l0 -3.734375l3.734375 0l0 3.734375l-3.734375 0zm36.16382 -3.15625l0 3.15625l-17.671875 0q-0.03125 -1.1875 0.390625 -2.28125q0.671875 -1.796875 2.15625 -3.546875q1.484375 -1.75 4.296875 -4.046875q4.359375 -3.578125 5.890625 -5.65625q1.53125 -2.09375 1.53125 -3.953125q0 -1.953125 -1.40625 -3.28125q-1.390625 -1.34375 -3.625 -1.34375q-2.375 0 -3.796875 1.421875q-1.421875 1.421875 -1.4375 3.9375l-3.375 -0.34375q0.34375 -3.78125 2.59375 -5.75q2.265625 -1.984375 6.078125 -1.984375q3.84375 0 6.078125 2.140625q2.25 2.125 2.25 5.28125q0 1.59375 -0.65625 3.15625q-0.65625 1.546875 -2.171875 3.265625q-1.515625 1.703125 -5.0625 4.6875q-2.953125 2.484375 -3.796875 3.375q-0.828125 0.875 -1.375 1.765625l13.109375 0zm3.5101318 -10.015625q0 -4.75 0.96875 -7.625q0.984375 -2.890625 2.90625 -4.453125q1.921875 -1.578125 4.84375 -1.578125q2.140625 0 3.765625 0.875q1.625 0.859375 2.671875 2.5q1.0625 1.625 1.65625 3.96875q0.609375 2.328125 0.609375 6.3125q0 4.703125 -0.96875 7.59375q-0.953125 2.875 -2.875 4.453125q-1.921875 1.578125 -4.859375 1.578125q-3.875 0 -6.078125 -2.765625q-2.640625 -3.34375 -2.640625 -10.859375zm3.375 0q0 6.578125 1.53125 8.765625q1.546875 2.171875 3.8125 2.171875q2.25 0 3.796875 -2.1875q1.546875 -2.1875 1.546875 -8.75q0 -6.609375 -1.546875 -8.765625q-1.546875 -2.171875 -3.84375 -2.171875q-2.25 0 -3.609375 1.90625q-1.6875 2.453125 -1.6875 9.03125zm34.63513 10.015625l0 3.15625l-17.671875 0q-0.03125 -1.1875 0.390625 -2.28125q0.671875 -1.796875 2.15625 -3.546875q1.484375 -1.75 4.296875 -4.046875q4.359375 -3.578125 5.890625 -5.65625q1.53125 -2.09375 1.53125 -3.953125q0 -1.953125 -1.40625 -3.28125q-1.390625 -1.34375 -3.625 -1.34375q-2.375 0 -3.796875 1.421875q-1.421875 1.421875 -1.4375 3.9375l-3.375 -0.34375q0.34375 -3.78125 2.59375 -5.75q2.265625 -1.984375 6.078125 -1.984375q3.84375 0 6.078125 2.140625q2.25 2.125 2.25 5.28125q0 1.59375 -0.65625 3.15625q-0.65625 1.546875 -2.171875 3.265625q-1.515625 1.703125 -5.0625 4.6875q-2.953125 2.484375 -3.796875 3.375q-0.828125 0.875 -1.375 1.765625l13.109375 0zm3.5101318 -3.84375l3.453125 -0.296875q0.375 2.515625 1.765625 3.796875q1.40625 1.265625 3.375 1.265625q2.359375 0 4.0 -1.78125q1.640625 -1.796875 1.640625 -4.75q0 -2.8125 -1.578125 -4.421875q-1.578125 -1.625 -4.125 -1.625q-1.578125 0 -2.859375 0.71875q-1.28125 0.71875 -2.0 1.859375l-3.09375 -0.390625l2.59375 -13.734375l13.296875 0l0 3.140625l-10.671875 0l-1.4375 7.171875q2.40625 -1.671875 5.046875 -1.671875q3.5 0 5.90625 2.421875q2.40625 2.421875 2.40625 6.234375q0 3.625 -2.109375 6.28125q-2.578125 3.234375 -7.015625 3.234375q-3.65625 0 -5.96875 -2.03125q-2.296875 -2.046875 -2.625 -5.421875zm22.603882 7.0l0 -3.734375l3.734375 0l0 3.734375l-3.734375 0zm8.527222 -13.171875q0 -4.75 0.96875 -7.625q0.984375 -2.890625 2.90625 -4.453125q1.921875 -1.578125 4.84375 -1.578125q2.140625 0 3.765625 0.875q1.625 0.859375 2.671875 2.5q1.0625 1.625 1.65625 3.96875q0.609375 2.328125 0.609375 6.3125q0 4.703125 -0.96875 7.59375q-0.953125 2.875 -2.875 4.453125q-1.921875 1.578125 -4.859375 1.578125q-3.875 0 -6.078125 -2.765625q-2.640625 -3.34375 -2.640625 -10.859375zm3.375 0q0 6.578125 1.53125 8.765625q1.546875 2.171875 3.8125 2.171875q2.25 0 3.796875 -2.1875q1.546875 -2.1875 1.546875 -8.75q0 -6.609375 -1.546875 -8.765625q-1.546875 -2.171875 -3.84375 -2.171875q-2.25 0 -3.609375 1.90625q-1.6875 2.453125 -1.6875 9.03125zm17.603882 -10.046875l0 -3.15625l17.296875 0l0 2.546875q-2.546875 2.71875 -5.0625 7.21875q-2.5 4.5 -3.859375 9.265625q-0.984375 3.359375 -1.265625 7.34375l-3.375 0q0.0625 -3.15625 1.234375 -7.609375q1.1875 -4.46875 3.40625 -8.609375q2.21875 -4.15625 4.71875 -7.0l-13.09375 0zm22.385132 23.21875l0 -3.734375l3.734375 0l0 3.734375l-3.734375 0zm25.777222 -3.15625l0 3.15625l-17.671875 0q-0.03125 -1.1875 0.390625 -2.28125q0.671875 -1.796875 2.15625 -3.546875q1.484375 -1.75 4.296875 -4.046875q4.359375 -3.578125 5.890625 -5.65625q1.53125 -2.09375 1.53125 -3.953125q0 -1.953125 -1.40625 -3.28125q-1.390625 -1.34375 -3.625 -1.34375q-2.375 0 -3.796875 1.421875q-1.421875 1.421875 -1.4375 3.9375l-3.375 -0.34375q0.34375 -3.78125 2.59375 -5.75q2.265625 -1.984375 6.078125 -1.984375q3.84375 0 6.078125 2.140625q2.25 2.125 2.25 5.28125q0 1.59375 -0.65625 3.15625q-0.65625 1.546875 -2.171875 3.265625q-1.515625 1.703125 -5.0625 4.6875q-2.953125 2.484375 -3.796875 3.375q-0.828125 0.875 -1.375 1.765625l13.109375 0zm4.010132 -3.015625l3.140625 -0.296875q0.40625 2.21875 1.53125 3.234375q1.140625 1.0 2.90625 1.0q1.515625 0 2.65625 -0.6875q1.140625 -0.703125 1.859375 -1.859375q0.734375 -1.15625 1.21875 -3.125q0.5 -1.96875 0.5 -4.015625q0 -0.21875 -0.015625 -0.65625q-0.984375 1.5625 -2.6875 2.546875q-1.703125 0.96875 -3.703125 0.96875q-3.3125 0 -5.609375 -2.40625q-2.296875 -2.40625 -2.296875 -6.34375q0 -4.0625 2.390625 -6.53125q2.40625 -2.484375 6.015625 -2.484375q2.609375 0 4.765625 1.40625q2.15625 1.40625 3.28125 4.0q1.125 2.59375 1.125 7.515625q0 5.125 -1.125 8.15625q-1.109375 3.03125 -3.3125 4.625q-2.1875 1.578125 -5.140625 1.578125q-3.125 0 -5.125 -1.734375q-1.984375 -1.75 -2.375 -4.890625zm13.421875 -11.796875q0 -2.828125 -1.5 -4.484375q-1.5 -1.65625 -3.609375 -1.65625q-2.1875 0 -3.8125 1.78125q-1.625 1.78125 -1.625 4.625q0 2.5625 1.53125 4.15625q1.546875 1.59375 3.8125 1.59375q2.28125 0 3.734375 -1.59375q1.46875 -1.59375 1.46875 -4.421875zm8.682007 17.96875l0 -3.734375l3.734375 0l0 3.734375l-3.734375 0zm17.273193 -8.34375l0 -2.640625l20.765625 0l0 2.640625l-20.765625 0zm50.00598 5.1875l0 3.15625l-17.671875 0q-0.03125 -1.1875 0.390625 -2.28125q0.671875 -1.796875 2.15625 -3.546875q1.484375 -1.75 4.296875 -4.046875q4.359375 -3.578125 5.890625 -5.65625q1.53125 -2.09375 1.53125 -3.953125q0 -1.953125 -1.40625 -3.28125q-1.390625 -1.34375 -3.625 -1.34375q-2.375 0 -3.796875 1.421875q-1.421875 1.421875 -1.4375 3.9375l-3.375 -0.34375q0.34375 -3.78125 2.59375 -5.75q2.265625 -1.984375 6.078125 -1.984375q3.84375 0 6.078125 2.140625q2.25 2.125 2.25 5.28125q0 1.59375 -0.65625 3.15625q-0.65625 1.546875 -2.171875 3.265625q-1.515625 1.703125 -5.0625 4.6875q-2.953125 2.484375 -3.796875 3.375q-0.828125 0.875 -1.375 1.765625l13.109375 0zm3.5101318 -10.015625q0 -4.75 0.96875 -7.625q0.984375 -2.890625 2.90625 -4.453125q1.921875 -1.578125 4.84375 -1.578125q2.140625 0 3.765625 0.875q1.625 0.859375 2.671875 2.5q1.0625 1.625 1.65625 3.96875q0.609375 2.328125 0.609375 6.3125q0 4.703125 -0.96875 7.59375q-0.953125 2.875 -2.875 4.453125q-1.921875 1.578125 -4.859375 1.578125q-3.875 0 -6.078125 -2.765625q-2.640625 -3.34375 -2.640625 -10.859375zm3.375 0q0 6.578125 1.53125 8.765625q1.546875 2.171875 3.8125 2.171875q2.25 0 3.796875 -2.1875q1.546875 -2.1875 1.546875 -8.75q0 -6.609375 -1.546875 -8.765625q-1.546875 -2.171875 -3.84375 -2.171875q-2.25 0 -3.609375 1.90625q-1.6875 2.453125 -1.6875 9.03125zm34.63513 10.015625l0 3.15625l-17.671875 0q-0.03125 -1.1875 0.390625 -2.28125q0.671875 -1.796875 2.15625 -3.546875q1.484375 -1.75 4.296875 -4.046875q4.359375 -3.578125 5.890625 -5.65625q1.53125 -2.09375 1.53125 -3.953125q0 -1.953125 -1.40625 -3.28125q-1.390625 -1.34375 -3.625 -1.34375q-2.375 0 -3.796875 1.421875q-1.421875 1.421875 -1.4375 3.9375l-3.375 -0.34375q0.34375 -3.78125 2.59375 -5.75q2.265625 -1.984375 6.078125 -1.984375q3.84375 0 6.078125 2.140625q2.25 2.125 2.25 5.28125q0 1.59375 -0.65625 3.15625q-0.65625 1.546875 -2.171875 3.265625q-1.515625 1.703125 -5.0625 4.6875q-2.953125 2.484375 -3.796875 3.375q-0.828125 0.875 -1.375 1.765625l13.109375 0zm3.5101318 -3.84375l3.453125 -0.296875q0.375 2.515625 1.765625 3.796875q1.40625 1.265625 3.375 1.265625q2.359375 0 4.0 -1.78125q1.640625 -1.796875 1.640625 -4.75q0 -2.8125 -1.578125 -4.421875q-1.578125 -1.625 -4.125 -1.625q-1.578125 0 -2.859375 0.71875q-1.28125 0.71875 -2.0 1.859375l-3.09375 -0.390625l2.59375 -13.734375l13.296875 0l0 3.140625l-10.671875 0l-1.4375 7.171875q2.40625 -1.671875 5.046875 -1.671875q3.5 0 5.90625 2.421875q2.40625 2.421875 2.40625 6.234375q0 3.625 -2.109375 6.28125q-2.578125 3.234375 -7.015625 3.234375q-3.65625 0 -5.96875 -2.03125q-2.296875 -2.046875 -2.625 -5.421875zm22.603882 7.0l0 -3.734375l3.734375 0l0 3.734375l-3.734375 0zm8.527222 -13.171875q0 -4.75 0.96875 -7.625q0.984375 -2.890625 2.90625 -4.453125q1.921875 -1.578125 4.84375 -1.578125q2.140625 0 3.765625 0.875q1.625 0.859375 2.671875 2.5q1.0625 1.625 1.65625 3.96875q0.609375 2.328125 0.609375 6.3125q0 4.703125 -0.96875 7.59375q-0.953125 2.875 -2.875 4.453125q-1.921875 1.578125 -4.859375 1.578125q-3.875 0 -6.078125 -2.765625q-2.640625 -3.34375 -2.640625 -10.859375zm3.375 0q0 6.578125 1.53125 8.765625q1.546875 2.171875 3.8125 2.171875q2.25 0 3.796875 -2.1875q1.546875 -2.1875 1.546875 -8.75q0 -6.609375 -1.546875 -8.765625q-1.546875 -2.171875 -3.84375 -2.171875q-2.25 0 -3.609375 1.90625q-1.6875 2.453125 -1.6875 9.03125zm22.432007 -1.3125q-2.03125 -0.75 -3.015625 -2.140625q-0.984375 -1.390625 -0.984375 -3.3125q0 -2.921875 2.09375 -4.90625q2.09375 -1.984375 5.578125 -1.984375q3.5 0 5.625 2.03125q2.140625 2.03125 2.140625 4.953125q0 1.859375 -0.984375 3.234375q-0.96875 1.375 -2.953125 2.125q2.453125 0.796875 3.734375 2.59375q1.296875 1.78125 1.296875 4.25q0 3.4375 -2.4375 5.765625q-2.421875 2.328125 -6.375 2.328125q-3.953125 0 -6.375 -2.34375q-2.421875 -2.34375 -2.421875 -5.84375q0 -2.59375 1.3125 -4.359375q1.328125 -1.765625 3.765625 -2.390625zm-0.65625 -5.5625q0 1.890625 1.21875 3.09375q1.234375 1.203125 3.171875 1.203125q1.90625 0 3.109375 -1.1875q1.21875 -1.203125 1.21875 -2.921875q0 -1.8125 -1.25 -3.03125q-1.25 -1.234375 -3.109375 -1.234375q-1.875 0 -3.125 1.203125q-1.234375 1.203125 -1.234375 2.875zm-1.046875 12.34375q0 1.390625 0.65625 2.703125q0.671875 1.3125 1.984375 2.046875q1.3125 0.71875 2.828125 0.71875q2.34375 0 3.875 -1.515625q1.53125 -1.515625 1.53125 -3.84375q0 -2.375 -1.578125 -3.921875q-1.578125 -1.546875 -3.9375 -1.546875q-2.328125 0 -3.84375 1.53125q-1.515625 1.53125 -1.515625 3.828125zm19.260132 7.703125l0 -3.734375l3.734375 0l0 3.734375l-3.734375 0zm8.527222 -13.171875q0 -4.75 0.96875 -7.625q0.984375 -2.890625 2.90625 -4.453125q1.921875 -1.578125 4.84375 -1.578125q2.140625 0 3.765625 0.875q1.625 0.859375 2.671875 2.5q1.0625 1.625 1.65625 3.96875q0.609375 2.328125 0.609375 6.3125q0 4.703125 -0.96875 7.59375q-0.953125 2.875 -2.875 4.453125q-1.921875 1.578125 -4.859375 1.578125q-3.875 0 -6.078125 -2.765625q-2.640625 -3.34375 -2.640625 -10.859375zm3.375 0q0 6.578125 1.53125 8.765625q1.546875 2.171875 3.8125 2.171875q2.25 0 3.796875 -2.1875q1.546875 -2.1875 1.546875 -8.75q0 -6.609375 -1.546875 -8.765625q-1.546875 -2.171875 -3.84375 -2.171875q-2.25 0 -3.609375 1.90625q-1.6875 2.453125 -1.6875 9.03125zm34.41638 -7.0l-3.265625 0.25q-0.4375 -1.9375 -1.234375 -2.8125q-1.34375 -1.390625 -3.28125 -1.390625q-1.578125 0 -2.765625 0.875q-1.546875 1.125 -2.4375 3.296875q-0.890625 2.15625 -0.921875 6.171875q1.171875 -1.796875 2.890625 -2.671875q1.71875 -0.875 3.59375 -0.875q3.28125 0 5.578125 2.421875q2.3125 2.40625 2.3125 6.234375q0 2.515625 -1.09375 4.671875q-1.078125 2.15625 -2.96875 3.3125q-1.890625 1.140625 -4.296875 1.140625q-4.109375 0 -6.703125 -3.015625q-2.578125 -3.015625 -2.578125 -9.9375q0 -7.75 2.859375 -11.265625q2.5 -3.0625 6.71875 -3.0625q3.15625 0 5.171875 1.765625q2.015625 1.765625 2.421875 4.890625zm-13.40625 11.515625q0 1.6875 0.71875 3.25q0.71875 1.546875 2.015625 2.359375q1.296875 0.8125 2.71875 0.8125q2.078125 0 3.5625 -1.671875q1.5 -1.6875 1.5 -4.5625q0 -2.78125 -1.484375 -4.375q-1.46875 -1.59375 -3.703125 -1.59375q-2.21875 0 -3.78125 1.59375q-1.546875 1.59375 -1.546875 4.1875zm18.978882 8.65625l0 -3.734375l3.734375 0l0 3.734375l-3.734375 0z" fill-rule="nonzero"/><path fill="#000000" d="m954.8542 854.72437l-12.09375 0q-1.03125 0 -1.03125 0.90625q-0.03125 0.953125 0.984375 0.953125l4.96875 0l0 6.40625q0 5.796875 -2.234375 10.53125q-1.703125 3.71875 -4.375 6.125q-0.46875 0.40625 -0.5 0.84375q-0.046875 0.4375 0.25 0.734375q0.25 0.28125 0.65625 0.328125q0.4375 0 0.84375 -0.296875q2.25 -1.9375 4.0 -5.0625q1.828125 -3.25 2.453125 -6.609375q0.546875 3.28125 2.359375 6.609375q1.6875 3.0625 3.796875 5.0625q0.328125 0.296875 0.796875 0.25q0.40625 -0.03125 0.765625 -0.359375q0.328125 -0.296875 0.359375 -0.6875q0.046875 -0.484375 -0.359375 -0.8125q-2.765625 -2.46875 -4.484375 -6.15625q-2.1875 -4.734375 -2.1875 -10.53125l0 -6.375l5.03125 0q0.84375 0 0.875 -0.953125q0 -0.90625 -0.875 -0.90625zm4.125 -0.078125l0 11.59375l-4.953125 0q-0.515625 0 -0.8125 0.28125q-0.28125 0.265625 -0.28125 0.65625q0 0.375 0.28125 0.625q0.296875 0.328125 0.84375 0.328125l4.921875 0l0 14.84375q0 0.5 0.328125 0.828125q0.28125 0.296875 0.765625 0.296875q0.4375 0 0.71875 -0.296875q0.375 -0.328125 0.375 -0.828125l0 -28.40625q0 -0.46875 -0.375 -0.71875q-0.28125 -0.265625 -0.71875 -0.21875q-0.484375 0 -0.765625 0.25q-0.328125 0.25 -0.328125 0.765625zm9.078125 28.328125l0 -28.40625q0 -0.46875 -0.375 -0.71875q-0.28125 -0.265625 -0.6875 -0.265625q-0.4375 0 -0.734375 0.265625q-0.328125 0.28125 -0.328125 0.765625l0 28.359375q0 0.5 0.328125 0.828125q0.296875 0.296875 0.734375 0.296875q0.40625 0 0.6875 -0.296875q0.375 -0.328125 0.375 -0.828125zm28.578125 -28.515625l-16.546875 0q-1.03125 0 -1.03125 0.921875q-0.03125 0.9375 0.984375 0.9375l7.21875 0l0 1.203125q0 3.828125 -2.515625 6.5625q-2.078125 2.265625 -5.96875 3.859375q-0.484375 0.1875 -0.625 0.59375q-0.109375 0.359375 0.078125 0.71875q0.21875 0.40625 0.578125 0.546875q0.40625 0.1875 0.875 0.046875q3.28125 -1.28125 5.578125 -3.390625q2.21875 -2.125 3.0625 -4.5625q0.625 2.15625 3.140625 4.34375q2.328125 2.0 5.3125 3.28125q0.515625 0.21875 0.984375 0.0625q0.4375 -0.140625 0.65625 -0.546875q0.1875 -0.390625 0.078125 -0.796875q-0.15625 -0.40625 -0.625 -0.578125q-3.640625 -1.46875 -5.75 -3.65625q-2.703125 -2.765625 -2.703125 -6.546875l0 -1.140625l7.21875 0q0.90625 0 0.90625 -0.9375q0 -0.921875 -0.90625 -0.921875zm6.703125 7.953125l0 -7.84375q0 -0.984375 -1.09375 -0.984375q-1.0625 0 -1.0625 0.984375l0 14.625q0 0.5 0.328125 0.796875q0.296875 0.296875 0.734375 0.296875q0.4375 0 0.734375 -0.296875q0.359375 -0.296875 0.359375 -0.796875l0 -4.921875l3.96875 0q0.953125 0 0.953125 -0.953125q0 -0.90625 -0.953125 -0.90625l-3.96875 0zm-3.609375 10.890625l-18.8125 0q-1.015625 0 -0.984375 0.953125q0 0.953125 0.984375 0.953125l18.8125 0q0.765625 0 1.125 0.328125q0.328125 0.28125 0.328125 0.984375l0 6.484375q0 0.515625 0.328125 0.84375q0.296875 0.25 0.734375 0.25q0.4375 0 0.734375 -0.25q0.359375 -0.328125 0.359375 -0.84375l0 -6.484375q0 -1.53125 -0.90625 -2.375q-0.953125 -0.84375 -2.703125 -0.84375zm34.234314 -18.578125l-16.546814 0q-1.03125 0 -1.03125 0.90625q-0.03125 0.953125 0.984375 0.953125l7.218689 0l0 5.9375q0 5.6875 -2.437439 10.390625q-2.328125 4.59375 -6.015625 6.484375q-0.46875 0.21875 -0.625 0.65625q-0.109375 0.40625 0.109375 0.796875q0.1875 0.375 0.546875 0.515625q0.40625 0.1875 0.84375 -0.03125q3.0625 -1.53125 5.5 -5.140625q2.406189 -3.546875 3.140564 -7.375q0.625 3.71875 3.09375 7.375q2.484375 3.5625 5.390625 5.140625q0.546875 0.28125 1.03125 0.140625q0.4375 -0.109375 0.65625 -0.515625q0.171875 -0.359375 0.0625 -0.796875q-0.109375 -0.4375 -0.578125 -0.6875q-3.828125 -2.125 -6.15625 -6.640625q-2.40625 -4.671875 -2.40625 -10.34375l0 -5.90625l7.21875 0q0.90625 0 0.90625 -0.953125q0 -0.90625 -0.90625 -0.90625zm6.703125 13.21875l0 -13.328125q0 -0.484375 -0.359375 -0.765625q-0.296875 -0.21875 -0.734375 -0.21875q-0.4375 0 -0.734375 0.21875q-0.328125 0.28125 -0.328125 0.765625l0 28.421875q0 0.484375 0.328125 0.765625q0.296875 0.296875 0.734375 0.296875q0.4375 0 0.734375 -0.296875q0.359375 -0.28125 0.359375 -0.765625l0 -13.296875l4.046875 0q0.875 0 0.875 -0.921875q0 -0.875 -0.875 -0.875l-4.046875 0z" fill-rule="nonzero"/><path fill="#000000" d="m1052.026 866.615l0 -3.734375l3.734375 0l0 3.734375l-3.734375 0zm0 15.625l0 -3.734375l3.734375 0l0 3.734375l-3.734375 0z" fill-rule="nonzero"/><path fill="#000000" d="m1088.0648 854.09937q-6.3125 0 -9.671875 1.96875q-3.0625 1.75 -3.0625 4.703125q0 2.90625 3.0625 4.703125q3.390625 2.0 9.671875 2.0q6.21875 0 9.609375 -2.0q3.109375 -1.796875 3.109375 -4.703125q0 -2.953125 -3.109375 -4.703125q-3.34375 -1.96875 -9.609375 -1.96875zm0 1.859375q5.203125 0 8.015625 1.390625q2.578125 1.265625 2.578125 3.421875q0 2.109375 -2.578125 3.390625q-2.78125 1.421875 -8.015625 1.421875q-5.296875 0 -8.0625 -1.421875q-2.546875 -1.28125 -2.546875 -3.390625q0 -2.15625 2.546875 -3.421875q2.8125 -1.390625 8.0625 -1.390625zm14.25 15.75l-28.40625 0q-1.046875 0 -1.09375 0.90625q-0.0625 0.953125 0.921875 0.953125l6.84375 0l0 2.84375q0 1.59375 -0.578125 3.015625q-0.546875 1.3125 -1.609375 2.375q-0.359375 0.328125 -0.28125 0.796875q0.03125 0.40625 0.390625 0.734375q0.328125 0.296875 0.765625 0.328125q0.4375 0.03125 0.8125 -0.296875q1.203125 -1.234375 1.921875 -3.0625q0.765625 -1.890625 0.765625 -3.859375l0 -2.875l11.625 0l0 9.4375q0 0.515625 0.328125 0.84375q0.296875 0.25 0.734375 0.25q0.4375 0 0.734375 -0.296875q0.359375 -0.328125 0.359375 -0.828125l0 -9.40625l5.828125 0q0.921875 0 0.921875 -0.953125q-0.046875 -0.90625 -0.984375 -0.90625zm22.671875 -13.8125l0 8.1875q0 0.84375 -0.40625 1.171875q-0.359375 0.328125 -1.234375 0.328125l-7.796875 0q-0.921875 0 -1.25 -0.328125q-0.359375 -0.296875 -0.359375 -1.09375l0 -8.09375q0 -0.9375 0.328125 -1.34375q0.359375 -0.40625 1.234375 -0.40625l7.765625 0q0.953125 0 1.359375 0.40625q0.359375 0.359375 0.359375 1.171875zm-1.125 -3.4375l-8.828125 0q-1.5 0 -2.40625 0.953125q-0.84375 0.875 -0.84375 2.1875l0 8.921875q0 1.3125 0.84375 2.125q0.84375 0.765625 2.265625 0.765625l8.859375 0q1.484375 0 2.390625 -0.765625q0.953125 -0.8125 0.953125 -2.125l0 -9.140625q0 -1.34375 -0.875 -2.15625q-0.875 -0.765625 -2.359375 -0.765625zm13.265625 16.84375l0 -16.734375q0 -0.46875 -0.375 -0.71875q-0.28125 -0.265625 -0.71875 -0.265625q-0.484375 0 -0.765625 0.265625q-0.328125 0.28125 -0.328125 0.765625l0 3.828125l-6.234375 0q-0.546875 0 -0.84375 0.28125q-0.25 0.265625 -0.25 0.65625q0.03125 0.375 0.328125 0.625q0.359375 0.328125 0.9375 0.328125l6.0625 0l0 4.40625l-6.171875 0q-0.546875 0 -0.875 0.296875q-0.25 0.25 -0.25 0.65625q0 0.359375 0.296875 0.609375q0.328125 0.328125 0.875 0.328125l6.125 0l0 4.671875q0 0.546875 0.328125 0.875q0.28125 0.296875 0.765625 0.296875q0.4375 0 0.71875 -0.296875q0.375 -0.328125 0.375 -0.875zm-11.734375 1.75q-5.984375 0 -9.15625 1.640625q-2.84375 1.453125 -2.84375 3.96875q0 2.40625 2.84375 3.875q3.171875 1.640625 9.15625 1.640625q5.96875 0 9.109375 -1.640625q2.875 -1.46875 2.875 -3.875q0 -2.515625 -2.875 -3.96875q-3.140625 -1.640625 -9.109375 -1.640625zm0 1.890625q4.953125 0 7.5 1.03125q2.375 0.984375 2.375 2.6875q0 1.640625 -2.375 2.59375q-2.546875 1.0625 -7.5 1.0625q-5.0 0 -7.546875 -1.0625q-2.34375 -0.953125 -2.34375 -2.59375q0 -1.703125 2.34375 -2.6875q2.546875 -1.03125 7.546875 -1.03125zm30.765625 -19.71875q0 3.28125 -1.828125 6.78125q-2.15625 4.078125 -6.265625 7.359375q-0.515625 0.375 -0.546875 0.8125q-0.078125 0.390625 0.21875 0.6875q0.25 0.296875 0.65625 0.296875q0.46875 0.03125 0.90625 -0.265625q2.484375 -1.890625 4.34375 -4.15625q1.5625 -1.921875 2.734375 -4.140625q2.296875 1.375 4.21875 3.125q2.1875 1.890625 4.265625 4.515625q0.328125 0.4375 0.84375 0.484375q0.4375 0.03125 0.765625 -0.265625q0.359375 -0.28125 0.359375 -0.71875q0.03125 -0.484375 -0.328125 -0.875q-2.296875 -2.671875 -4.40625 -4.453125q-2.109375 -1.8125 -4.953125 -3.53125q0.546875 -1.390625 0.875 -2.875q0.359375 -1.5 0.359375 -2.625q0 -0.59375 -0.359375 -0.921875q-0.328125 -0.28125 -0.765625 -0.28125q-0.4375 -0.046875 -0.765625 0.25q-0.328125 0.296875 -0.328125 0.796875zm18.296875 16.078125l0 -16.734375q0 -0.46875 -0.375 -0.71875q-0.28125 -0.265625 -0.71875 -0.265625q-0.484375 0 -0.765625 0.265625q-0.328125 0.28125 -0.328125 0.765625l0 6.296875l-9.296875 0q-0.546875 0 -0.84375 0.265625q-0.25 0.28125 -0.25 0.65625q0 0.359375 0.296875 0.65625q0.328125 0.28125 0.859375 0.28125l9.234375 0l0 8.53125q0 0.546875 0.328125 0.875q0.28125 0.296875 0.765625 0.296875q0.4375 0 0.71875 -0.296875q0.375 -0.328125 0.375 -0.875zm-11.734375 1.75q-5.984375 0 -9.15625 1.640625q-2.84375 1.453125 -2.84375 3.96875q0 2.40625 2.84375 3.875q3.171875 1.640625 9.15625 1.640625q5.96875 0 9.109375 -1.640625q2.875 -1.46875 2.875 -3.875q0 -2.515625 -2.875 -3.96875q-3.140625 -1.640625 -9.109375 -1.640625zm0 1.890625q4.953125 0 7.5 1.03125q2.375 0.984375 2.375 2.6875q0 1.640625 -2.375 2.59375q-2.546875 1.0625 -7.5 1.0625q-5.0 0 -7.546875 -1.0625q-2.34375 -0.953125 -2.34375 -2.59375q0 -1.703125 2.34375 -2.6875q2.546875 -1.03125 7.546875 -1.03125z" fill-rule="nonzero"/></g></svg>